/* XPM */
static char *result[] = {
/* columns rows colors chars-per-pixel */
"32 32 14 1 ",
"  c #805A42",
". c #A5734D",
"X c #B78356",
"o c #CEA272",
"O c #C9AD77",
"+ c #C3D657",
"@ c #CBD66F",
"# c #349AA4",
"$ c #42ACAF",
"% c #4EBCB9",
"& c #4BD3CF",
"* c #CFBF82",
"= c #D9D48C",
"- c #D4D69A",
/* pixels */
"%%%%%%%%%%%%%%%%%%%%%%%%%%%%%%%%",
"%%%%%%%%%%%%%%%%%%%%%%%%%%%%%%%%",
"%%%%%%%%%%%%%%%%%%%%%%%%%%%%%%%%",
"%%%%%%%%%%$###%%%%####$%%%%%%%%%",
"%%%%%%%$###&&&####&&&&##$$%%%%%%",
"%%%%$#&&..X*-*.. .*---X..#&#$%%%",
"%%%$#&#X*=---==*=*==--==X.#&#$$%",
"%$$&##X*+++@@++@@+++++@@-=O. &#$",
"%$### oo+++++++++++++@+@-=O. #&$",
"%$## Xo=@@+++++++++++@+@+=O. #&$",
"%#& XXX=@++++++++++++++++=OOo &$",
"%#&.XOo*@++++++++++++++++@*XX ##",
"%#& .X*O@@++++++++++++++--*X..##",
"$#& .X=O@@++++++++++++++--*O..##",
"$&#X*O*-+++++++++++++++++=*XXX #",
"$&#X***-+++++++++++++++++=XXXX &",
"$#&OO*X=@++++++++++++++@==Oo*X.&",
"$#&XXOX*++++++++++++++++==*o*X.&",
"%#&XX.*O++++++++++++++++++*..X #",
"%#&. X*o++++++++++++++++@+=XX ##",
"%#&#.O**-+++++++++++++++--XoX#&#",
"$#&.X*O--@++++++++++++++-*XXo ##",
"$&#.oO**-@++++@@@++@@@@+O=*.o. &",
"$&#XoO====O=-==--++=--O==*=X.. &",
"$&#ooo==**OX*-=--OO--OOO=X*X.. &",
"$#&.o=*.**XXXXooO***OXo**X.**. #",
"%#&Xo*=.OOXX**.O**X**.XXO..*OX #",
"%#&XXo.XX..oOoXXXX XX...OO.XXX #",
"%#& XX X....oX.XO. .. . XoX.X ##",
"%##&##..  ##   XOXX   #  .  #&#$",
"%$##&#####&&&&&    ##&&&&###&##$",
"%$$#######$$$$########$$####$$$%"
};
