/* XPM */
static char *result[] = {
/* columns rows colors chars-per-pixel */
"32 32 12 1 ",
"  c gray10",
". c #452E25",
"X c #58362A",
"o c #6E492F",
"O c #A84D00",
"+ c #D28100",
"@ c #EBBB00",
"# c #FDFF00",
"$ c #B38047",
"% c #D09F69",
"& c #FFFFBB",
"* c None",
/* pixels */
"********************************",
"********************************",
"********************************",
"********************************",
"********************************",
"********************************",
"********************************",
"********************************",
"******                    ******",
"******                    ******",
"****  @@@@$$$$$$$$$$$$@@@@  ****",
"****  @@@@$$$$$$$$$$$$@@@@  ****",
"**  ++&&&&%%%%%%%%%%%%&&&&++  **",
"**  ++&&&&%%%%%%%%%%%%&&&&++  **",
"**  @@&&&&$$$$$$$$$$$$&&&&@@  **",
"**  @@&&&&$$$$$$$$$$$$&&&&@@  **",
"**  @@####%%%%%%%%%%%%####@@  **",
"**  @@####%%%%%%%%%%%%####@@  **",
"**  ##@@@@$$&&&&&&&&$$@@@@##  **",
"**  ##@@@@$$&&&&&&&&$$@@@@##  **",
"**  &&&&&&&&########&&&&&&&&  **",
"**  &&&&&&&&########&&&&&&&&  **",
"**  ++++++OO@@....@@OO++++++  **",
"**  ++++++OO@@....@@OO++++++  **",
"****  OOOOXX++++++++XXOOOO  ****",
"****  OOOOXX++++++++XXOOOO  ****",
"****  ++++oooooooooooo++++  ****",
"****  ++++oooooooooooo++++  ****",
"****                        ****",
"****                        ****",
"********************************",
"********************************"
};
