/* XPM */
static char *result[] = {
/* columns rows colors chars-per-pixel */
"32 32 14 1 ",
"  c gray9",
". c #50391C",
"X c #795037",
"o c #93674D",
"O c #A7794D",
"+ c #BC8B4D",
"@ c #D3AB51",
"# c #D3A061",
"$ c #E3B071",
"% c #EBC066",
"& c #FACE73",
"* c #CECECE",
"= c #F4F4F4",
"- c None",
/* pixels */
"--------                --------",
"------  ################  ------",
"------ =.##..........##.= ------",
"----- .*=..&%%%@%%%@+..=*. -----",
"---- #.**==%&%&&&&@++==**.# ----",
"--- ###.***%%&&&&&&@@***.### ---",
"-- ####.o.%%%&&&&&&@@@.o..### --",
"-  ###.=..%%%&&&&&&@@@..=.###  -",
" .=.#..*=.%%&%&&&&%&@@.=*..#.=. ",
" .*=.@.**==&%%%%%%%%&==**.+.=*. ",
" .**=@%.***@%%%@%%@@%***.++=**. ",
" +.**@%%...@@%%..%%@%...@@+**.+ ",
" ..o.@%@%%.o..o..o..o.@@@@@.o.. ",
" .=..@@%%%.+..+..+..+.@@@@@..=. ",
" .*=.@%%%%.+..++++..+.@@@@@.=*. ",
" .**=@%%%&%%%%%%%%%%%%&@@++=**. ",
" #o**@%%&%..%%%%%%%%..%&@@+**o# ",
" ##o.@@&%%.=.%....%.=.%%&@@.o## ",
" ##$.@&%%%.*=.*==*.=*.%%%&@.### ",
" #$$$.%%%%.**======**.%%%%.$### ",
" #$$$$.%@%%.**====**.@@%%.$$$#X ",
" o$$$$.%%%%..******...@%%.$$$$X ",
" oO$$$$.%%.#O*.**.*O$.@@.$$$$XX ",
" oO+$$$$.@.$$O****O$$...$$$$ooX ",
"-oO++$$$$..#$O*OO*O$#X#$$$$oooX-",
"--O+++$$$#X++X*..*X++X#$$$oooX--",
"---+++O$##X++X*..*X++X##$oooX---",
"----++Oo##X++......++X##XooX----",
"-----+OoO++++......++++OXoX-----",
"------OoO++++      ++++OXX------",
"-------oO++++------++++OX-------",
"--------O++++------++++O--------"
};
