/* XPM */
static char *result[] = {
/* columns rows colors chars-per-pixel */
"32 32 15 1 ",
"  c gray9",
". c #2C2C2C",
"X c #373737",
"o c #49372C",
"O c #93674D",
"+ c #BC8B4D",
"@ c #D3A061",
"# c #E2AD6E",
"$ c #349AA4",
"% c #818181",
"& c #B1B1B1",
"* c #E8D4B2",
"= c #FFF9E4",
"- c #F4F4F4",
"; c None",
/* pixels */
";;;;;;;;;;;;;   ;;;;;;;;;;;;;;;;",
";;;;;;;;;;;;; #=;;;;;;;;;;;;;;;;",
";;;;;;;;;;;;; += ;;;;;;;;;;;;;;;",
";;;;;;;;;;;;; + = ;;;;;;;;;;;;;;",
";;;;;;;;;;;;; + = ;;;;;;;;;;;;;;",
";;;;;;;;;;;;; + = ;;;;;;;;;;;;;;",
";;;;;;;;;;;; #+* ;;;;;;;;;;;;;;;",
";;;;;;;   ; @++@;;;;;;;;;;;;;;;;",
";;;;;; =# ; @OO@ ;;  ;;;;;;;;;;;",
";;;;; ==+=  #@@#=  #= ;;;;;;;;;;",
";;;; ==*+== ++++== +== ; ;;;;;;;",
";;;  @@@+===oOOo== + == # ;;;;;;",
";;;  @@@+===oOOo== + == # ;;;;;;",
";; #ooOO+*===++#*=#+o*= += ;;;;;",
";; #o#+@+**===+O*=O+**# +== ;;;;",
";; #o#+@+@+oO++O*OO+*O+O+*==   ;",
";; #o#+@+@+o+++*@+@+@+O#+#*==#O ",
";; #o######o+OO*@+@+@+O+##+++O ;",
";; #oOXOOXOo+@+@@+@+@+O##OO   ;;",
";; #oO++++O..OOOO..OOO#+O  ;;;;;",
";; #oO++++O..OOOO..OOO#+O  ;;;;;",
";; #######.&&.##.&&.##+O ;;;;;;;",
";; +++++++.&&.++.&&.++O ;;;;;;;;",
";; OOXOOXO.%%.OX.%%.OO -;;;;;;;;",
";;- +O++O++++++O++++O --;;;;;;;;",
";;;--------------------;;;;;;;;;",
";;;$$$$$$$$$$$$$$$$$$;;;;;;;;;;;",
";;;;;$$$$$$$$$$$$$$;;;;;;;;;;;;;",
";;;;;$$$$$$$$$$$$$$;;;;;;;;;;;;;",
";;;;;;;;;;;;;;;;;;;;;;;;;;;;;;;;",
";;;;;;;;;;;;;;;;;;;;;;;;;;;;;;;;",
";;;;;;;;;;;;;;;;;;;;;;;;;;;;;;;;"
};
