/* XPM */
static char *result[] = {
/* columns rows colors chars-per-pixel */
"32 32 4 1 ",
"  c #38ADD4",
". c #48BBE1",
"X c #42BFE8",
"o c #4DC9F2",
/* pixels */
"oXoXXXXXXoXXXXXXXXooXXXXXooXoXX ",
"XoXXXXXXXXoXXXXXooXoXXXooXXoXXXX",
"XoXXXXXXXoXXooooXXXXoXoXXXXoXXXX",
"XXoXXXXXoXooXXoXXXXXXoXXXXXoXXXX",
"XXoXXXXooXXXXXXoXXXXXXXXXooooXXX",
"XoooXXXoXoXXXXXXoXXXXooooXXXoXoo",
"oXXXooXoXXooXXXXXooXoXXXXXXXXoXX",
"XXXXXXoXXXXXoXXooXXoXXXXXXXXoXXX",
"XXXXXXoXXXXXoooXXXXoXXXXXXXXoXXX",
"XXXXXoXXXXXXXoXXXXXXoXXXXXXoooXX",
"XXXXXoXXXXXXXXoXXXXXXoXXXooXXXoo",
"XXXXXoXXXXXXXXXoXXXXXXooXoXXXXXX",
"ooXXXXoooXXXXXXXoXXXXoXXoXXXXXXX",
"XoXoooXXXoXXXXooXoXXoXXXXoXXXXXX",
"XXoXXXXXXXoXooXXXXoXoXXXXXoXXXXX",
"XXoXXXXXXXXoXXXXXXXoXXXXXXoXXXXX",
"XXoooXXXXXXoXXXXXXooXXXXXXXooXXX",
"ooXXXoXXXXooooXXXoXXoXXXXXXXoXXo",
"XXXXXoXoooXXXXoooXXXXooXoooXoooX",
"oXXXXXoXXXXXXXXXoXXXXXXoXXXoXXXX",
"XoXXXXoXXXXXooooXoooXXXoXXXoXXXX",
"XoXXXXoXXXXXoXXXXXXoXXoXXXXoXXXX",
"XoXXXoXXXXXXoXXXXXXXooXXXXXXoXXX",
"XXoXXoXXXXXXoXXXXXXXoXXXXXXXXoXX",
"XXooooXXXXXXoXXXXXooooXXXXXXoooo",
"XoXXXXoXooooXXXXXoXXXXoXXXXXoXXX",
"XoXXXXXoXXXXoXXXXoXXXXoXXXXXoXXX",
"oXXXXXXoXXXXXooXoXXXXXXooXooXXXX",
"oXXXXXXoXXXXXXXoXXXXXXXXXoXXXXXX",
"oXXXXXXoXXXXXXXoXXXXXXXXXoXXXXXX",
"XoXXXXXoXXXXXXXoXXXXXXXXXoXXXXXX",
"  .   .         .       .       "
};
